<svg width="37" height="26" viewBox="0 0 37 26" fill="none" xmlns="http://www.w3.org/2000/svg">
<path fill-rule="evenodd" clip-rule="evenodd" d="M0 3.25C0 1.45507 1.45507 0 3.25 0H33.75C35.5449 0 37 1.45507 37 3.25C37 5.04493 35.5449 6.5 33.75 6.5H3.25C1.45507 6.5 0 5.04493 0 3.25ZM0 13C0 11.2051 1.45507 9.75 3.25 9.75H33.75C35.5449 9.75 37 11.2051 37 13C37 14.7949 35.5449 16.25 33.75 16.25H3.25C1.45507 16.25 0 14.7949 0 13ZM3.25 19.5C1.45507 19.5 0 20.9551 0 22.75C0 24.5449 1.45507 26 3.25 26H33.75C35.5449 26 37 24.5449 37 22.75C37 20.9551 35.5449 19.5 33.75 19.5H3.25Z" fill="black"/>
</svg>
